<svg fill="none" height="49" viewBox="0 0 181 49" width="181" xmlns="http://www.w3.org/2000/svg"><g fill="#fff"><path d="m76.7756 27.3308c1.4964 0 2.6935-1.1972 2.6935-2.6937 0-1.5265-1.2271-2.7536-2.7533-2.7237-1.5862.03-2.7833 1.2272-2.7534 2.7237 0 1.5563 1.2271 2.6937 2.8132 2.6937zm9.8161-9.9967c1.4964-.0299 2.6935-1.2271 2.6935-2.7236s-1.3168-2.7536-2.8132-2.7236c-1.5562.0598-2.7832 1.287-2.7233 2.7835.0299 1.5264 1.2868 2.6937 2.843 2.6637zm9.8461 9.7872c1.4964.0598 2.7533-1.0775 2.8132-2.574.0598-1.5265-1.1373-2.8134-2.6336-2.8434-1.5862-.0299-2.8431 1.1074-2.873 2.6339-.03 1.5563 1.1073 2.7535 2.6934 2.7835zm-9.6964 10.0265c1.4963 0 2.6934-1.1972 2.7234-2.6637.0299-1.4666-1.1971-2.7237-2.6636-2.7536-1.5861-.0299-2.873 1.1972-2.873 2.7236 0 1.4666 1.2869 2.6638 2.8132 2.6937zm9.8161-8.1409c-1.3168-.03-2.454-.4191-3.4117-1.4067-1.1073-1.1075-2.454-1.2571-3.4416-.3891-1.0475.8979-1.1073 2.2746-.0599 3.5317 1.1373 1.3768 2.0052 2.8134 1.5562 4.699-.4189 1.7659-1.8255 3.1726-3.5613 3.4719-1.9153.3592-3.8307-.419-4.8183-2.0352-1.0474-1.6761-.9876-3.3821.0599-5.0582.2394-.3891.5686-.7183.8379-1.0775.9577-1.1972.9278-2.544-.1496-3.4419-1.0175-.868-2.3643-.7483-3.3818.2993-1.2569 1.3468-2.8132 1.8556-4.6088 1.4366-1.8854-.449-3.2321-1.9455-3.5015-3.861-.2394-1.7958.7482-3.7113 2.3343-4.5793 1.7358-.9278 3.8008-.7183 5.2972.5388.1795.1496.3591.3591.5387.5088 1.0175.9278 2.4241.9278 3.3518.0299.8978-.868.9577-2.2148.1197-3.2624-.7182-.868-1.4664-1.6461-1.7058-2.8134-.4489-2.125.5387-4.2501 2.4839-5.148 2.0052-.92782 4.3694-.3891 5.6563 1.3169 1.3168 1.706 1.2869 4.0705-.1197 5.7466-.2394.2694-.4789.5687-.7183.8381-.808 1.0774-.7182 2.3944.2095 3.2623.9577.868 2.3643.868 3.3219-.1496 1.0176-1.0476 2.1847-1.6761 3.6811-1.6761 2.5438 0 4.5784 2.0352 4.5784 4.6092.03 2.5441-2.0346 4.5793-4.5485 4.6093z"/><path d="m116.848 23.38c-.599 1.1673-1.107 2.1849-1.616 3.2325-.359.7482-.868 1.3169-1.706 1.3468-.898.03-1.347-.5986-1.676-1.3468-.509-1.0775-1.047-2.125-1.766-3.1726-.029.2694-.059.5687-.059.838v7.3928c0 .8081-.33 1.3768-1.108 1.6461-.688.2395-1.287.03-1.765-.4788-.3-.3293-.389-.7782-.389-1.1972 0-5.2378 0-10.4756 0-15.7433 0-.8979.448-1.4965 1.286-1.6761s1.437.1796 1.796.9578c.988 2.0352 1.945 4.0406 2.933 6.0758.18.3891.389.7483.658 1.287.988-1.9754 2.005-3.7113 2.843-5.567.27-.6285.569-1.2271.898-1.8257.389-.7184 1.018-1.0775 1.856-.868.808.2095 1.257.7782 1.257 1.6162v15.833c0 1.0476-.719 1.736-1.646 1.736-.928-.03-1.586-.7183-1.586-1.7958-.03-2.3645 0-4.7589 0-7.1234 0-.3591.059-.6884-.21-1.1673z"/><path d="m9.85821 25.2357c0-.7483 0-1.4666 0-2.2148 0-2.3046 0-4.6392 0-6.9438 0-1.1374.65839-1.8856 1.58619-1.9155.9876 0 1.646.7183 1.646 1.9454v15.3542c0 1.0774-.419 1.706-1.257 1.8856-.9277.2095-1.4964-.2694-1.94526-1.0476-1.73578-3.0529-3.50149-6.0758-5.26719-9.1287-.14964-.2694-.26935-.5387-.56862-.7183-.29927.2394-.14964.5687-.14964.868 0 2.7835 0 5.567-.02992 8.3205 0 .9578-.53869 1.6163-1.34673 1.736-.77811.1197-1.556216-.3293-1.795634-1.1074-.089781-.2694-.089781-.5388-.089781-.8081 0-5.0882 0-10.1763 0-15.2644 0-1.2271.508765-1.9155 1.466435-1.9754.83796-.0598 1.34672.419 1.76571 1.1074 1.79563 3.1128 3.62119 6.2255 5.41683 9.3382.08978.2095.14963.4789.56861.5687z"/><path d="m21.0509 24.8466h2.0351c.5087 0 .5686-.2095.4489-.6286-.2993-1.0475-1.3168-1.7359-2.484-1.706-1.1073.03-2.035.7483-2.3343 1.7659-.1197.3891-.0299.5687.389.5687zm1.1971 3.0828c-.9577 0-1.9153.0299-2.873 0-.6883-.03-.7183.2394-.4788.7782.7481 1.5563 3.0226 2.0352 4.3693.8979.1197-.0898.2095-.2096.3292-.3293.9577-1.0176 1.8555-1.1672 2.6336-.419.7482.7183.5986 1.8257-.3591 2.7835-2.2745 2.2148-5.7161 2.4842-8.1701.5088-1.4066-1.1373-2.2146-2.6638-2.3044-4.4596-.1197-1.8556-.1796-3.7113.8379-5.3874 1.3468-2.2747 3.6512-3.2624 6.3446-2.6937 2.2446.4789 4.1599 2.6339 4.3395 5.0582.2094 2.6638.1197 3.442-2.9628 3.3222-.5986-.0598-1.1672-.0598-1.7059-.0598z"/><path d="m60.5849 33.4066c-.9577-.0598-1.9154.1197-2.8431-.1496-.7183-.2095-1.3468-.5986-1.8855-1.1374-.5985-.6584-.5985-1.5563-.0299-2.1849.5387-.5986 1.3767-.7183 2.065-.1796.4788.3592.9577.4789 1.5562.4789.8979-.0299 1.7957 0 2.6935 0 .8679 0 1.4365-.5387 1.3467-1.287-.0897-.8081-.5985-1.1672-1.4065-1.1672-1.0176 0-2.0351.0299-3.0526-.0599-2.2446-.2394-3.8906-2.0652-3.8607-4.2201.0299-2.0353 1.7358-3.861 3.8607-4.0406 1.2868-.1197 2.5737-.0299 3.8905 0 .8978.0299 1.646.4789 2.3344.9877.6883.5088.8679 1.4067.4788 2.0652-.4489.7183-1.4964 1.0475-2.1847.5387-1.3767-.9877-2.873-.4789-4.3096-.4789-.5985 0-.9277.5088-.8679 1.1074.0599.5986.449.9578 1.0475.9578.9577.0299 1.9154 0 2.873.0299 2.4242 0 4.3395 1.8557 4.3994 4.1902.0598 2.4244-1.7657 4.3998-4.1899 4.5195-.6284.0598-1.2868.0299-1.9153.0299z"/><path d="m168.892 26.403h-.03c0-.3293.03-.6884 0-1.0177-.12-1.676-1.377-2.8732-2.903-2.8732-1.646 0-2.903 1.1972-2.993 2.9032-.03.7782-.03 1.5563.06 2.3046.179 1.5264 1.347 2.5141 2.903 2.5141 1.526 0 2.663-.9577 2.873-2.4542.03-.449.06-.9279.09-1.3768zm3.052 1.9754v3.3222c0 .7183-.269 1.2571-.927 1.5564-.629.2693-1.228.2095-1.706-.2993-.389-.4191-.719-.1497-1.078-.03-2.454.9578-4.968.4191-6.793-1.4366-.329-.3292-.539-.7483-.778-1.1374-2.035-3.412-.868-8.53 2.364-10.2959 3.861-2.1251 8.769.6285 8.918 5.0282.03 1.1374 0 2.2149 0 3.2924z"/><path d="m134.056 24.4575v2.9631c-.03 3.3821-2.663 6.0159-5.985 6.0159-3.412 0-6.075-2.574-6.135-5.9561-.03-2.0651-.03-4.1303 0-6.1955 0-1.1972.598-1.8556 1.586-1.8556 1.017 0 1.616.7183 1.616 1.9155 0 2.0053-.03 4.0106.03 6.0159.03 1.4666.838 2.3944 2.155 2.7835 1.107.3293 2.394-.1496 3.112-1.1074.419-.5687.539-1.2271.539-1.9155 0-1.9754 0-3.9508 0-5.9262 0-1.0475.688-1.7658 1.586-1.7658s1.496.6884 1.526 1.7359c0 1.0775-.03 2.1849-.03 3.2923z"/><path d="m158.088 24.4874c0 .9877.03 1.9754 0 2.9631-.09 2.4243-1.167 4.3099-3.352 5.3575-2.245 1.0775-4.519.9278-6.524-.6884-1.377-1.1074-2.185-2.6039-2.245-4.3997-.06-2.2149-.03-4.4297-.03-6.6445 0-.9877.689-1.6761 1.587-1.6761.867 0 1.496.6585 1.526 1.6461.03 2.155-.03 4.31.06 6.465.089 2.1549 2.334 3.3821 4.249 2.3345 1.078-.5986 1.646-1.5264 1.646-2.7835-.03-2.0352 0-4.0705 0-6.1057 0-.6884.33-1.1673.958-1.4367.658-.2694 1.197-.0898 1.706.3592.389.3292.419.8081.419 1.287z"/><path d="m53.4623 24.4874c0 .9877.0299 1.9754 0 2.9631-.0599 2.6039-1.2869 4.5195-3.6512 5.5071-2.3642.9877-4.6087.5986-6.5241-1.1373-1.1971-1.1074-1.8854-2.5141-1.9153-4.1603-.0299-2.155-.0299-4.3099 0-6.4649 0-1.1074.6285-1.7659 1.5861-1.7659.8978.03 1.4964.6884 1.5263 1.736.0299 2.125-.0299 4.2501.0599 6.3751.0299 1.3169.8978 2.2448 2.2445 2.6039 1.1971.3292 2.454-.1796 3.1423-1.2271.419-.6286.4789-1.317.4789-2.0353 0-1.9454 0-3.8909 0-5.8364 0-.7183.2993-1.257.9876-1.5264.6285-.2694 1.1971-.0898 1.7058.3592.3592.3292.419.7482.419 1.1672-.0598 1.1673-.0598 2.3047-.0598 3.442z"/><path d="m29.8495 33.4365c-.5985-.0299-1.0774-.2993-1.3467-.838-.3292-.6884-.1796-1.3169.2394-1.9155.8679-1.1673 1.7059-2.3645 2.6336-3.442.5387-.6585.5387-1.0775 0-1.706-.8978-1.0775-1.7358-2.2448-2.6037-3.3821-.6883-.9279-.5985-1.8856.1796-2.4543.7781-.5387 1.6759-.3292 2.3343.5388.7183.9278 1.4365 1.8556 2.1249 2.8134.389.5687.6284.7183 1.1073.0299.7182-1.0176 1.5262-1.9454 2.3044-2.9032.6883-.8381 1.5861-1.0176 2.3343-.449.7482.5687.808 1.4666.1197 2.3645-.8679 1.1673-1.7059 2.3645-2.6336 3.442-.5387.6285-.4489 1.0475.0299 1.6461.838 1.0177 1.6161 2.0951 2.4241 3.1726.1796.2095.3292.449.4489.6884.419.868.2095 1.6462-.5087 2.0951-.7183.449-1.5562.2993-2.1249-.4489-.8379-1.0476-1.6759-2.1251-2.4839-3.2325-.3292-.4489-.5686-.4489-.8978 0-.7482 1.0476-1.5263 2.0951-2.3044 3.1427-.3292.5387-.7482.838-1.3767.838z"/><path d="m136.061 21.7937c0-1.8856 0-3.7712 0-5.6269 0-1.257.509-1.8556 1.557-1.8556 1.017.0299 1.526.6584 1.526 1.8856 0 .8679.03 1.7359 0 2.5739-.03.6286.12.9279.808.8381.419-.0599.868-.0299 1.287 0 .838.0898 1.436.7782 1.406 1.5564-.03.8081-.628 1.4067-1.496 1.4965-.628.0598-1.466-.2694-1.855.1795-.449.5088-.12 1.3469-.15 2.0652-.03.6285 0 1.2271 0 1.8557 0 2.544.868 3.4719 3.412 3.5018.808 0 1.376.2694 1.646 1.0475.359 1.0177-.27 1.9754-1.317 2.0652-3.801.3891-6.764-2.2447-6.764-6.0758-.089-1.7958-.06-3.6515-.06-5.5071z"/><path d="m174.159 21.7937c0-1.8856 0-3.7712 0-5.6568 0-1.0774.718-1.8856 1.616-1.8856s1.526.6884 1.526 1.8258c0 3.5617.03 7.0934 0 10.6551-.03 1.706.479 2.993 2.065 3.8011.748.3891.988 1.3768.628 2.0951-.389.7782-1.167 1.0176-2.064.6585-2.036-.8081-3.741-3.4719-3.771-5.9262 0-.9278 0-1.8556 0-2.7835 0-.9278 0-1.8556 0-2.7835z"/><path d="m86.7414 36.25c1.0175 0 1.7956-.7782 1.8255-1.7958 0-1.0177-.8379-1.8856-1.8555-1.8557-.9576.0299-1.8555.8979-1.8854 1.7958 0 .9877.9278 1.8856 1.9154 1.8557zm.0299.8979c-1.5562 0-2.8132-1.1972-2.8132-2.6937 0-1.5265 1.2869-2.7536 2.873-2.7237 1.4665.0299 2.6636 1.2571 2.6636 2.7536-.03 1.4666-1.257 2.6638-2.7234 2.6638z"/><path d="m96.5274 26.2234c1.0176.0299 1.8256-.7483 1.8555-1.7659.03-1.0176-.808-1.8856-1.8255-1.9155-1.0175 0-1.9154.868-1.9154 1.8257 0 1.0476.8081 1.8557 1.8854 1.8557zm-.0897.8979c-1.5862-.0599-2.7234-1.2271-2.6935-2.7835.03-1.5264 1.2869-2.6638 2.873-2.6339 1.5263.03 2.7234 1.3469 2.6336 2.8434-.0598 1.4965-1.3168 2.6339-2.8131 2.574z"/><path d="m88.3873 14.6404c0-1.0176-.808-1.8257-1.8256-1.8257-1.0474 0-1.9153.838-1.9153 1.8257 0 .9578.9876 1.8856 1.9453 1.8557.9876-.0299 1.7956-.868 1.7956-1.8557zm-1.7956 2.6937c-1.5562.03-2.8132-1.1373-2.8431-2.6638-.0299-1.4965 1.1971-2.7236 2.7234-2.7835 1.4963-.0598 2.8131 1.2272 2.8131 2.7237s-1.1971 2.6937-2.6934 2.7236z"/><path d="m76.7456 22.7814c-1.0176 0-1.9154.8381-1.9154 1.8257 0 .9279 1.0176 1.8557 2.0351 1.8557.9277 0 1.7058-.838 1.7058-1.7958.03-1.0476-.7781-1.8856-1.8255-1.8856zm.0299 4.5494c-1.5862 0-2.8132-1.1374-2.8132-2.6638-.0299-1.4965 1.1971-2.6937 2.7534-2.7236 1.5262-.03 2.7533 1.1672 2.7533 2.7236 0 1.4666-1.1971 2.6638-2.6935 2.6638z"/></g></svg>