<svg fill="none" height="49" viewBox="0 0 181 49" width="181" xmlns="http://www.w3.org/2000/svg"><g fill="#fff"><path d="m18.2121 24.3035c-.7677-.7633-1.6902-1.1448-2.768-1.1448h-10.68368c-.19843 0-.36865-.0701-.51104-.2107-.14238-.1403-.21339-.3113-.21339-.5132v-.8816c0-.1927.07101-.3595.21339-.5001.14239-.1403.31261-.2108.51104-.2108h13.77508c.0344 0 .0622-.0109.0838-.0329.0216-.0216.0324-.046.0324-.0722v-2.632c0-.0351-.0108-.0613-.0324-.079-.0216-.0173-.0497-.0262-.0838-.0262h-13.77508c-1.08648 0-2.01143.3818-2.7745 1.1451s-1.144611 1.6841-1.144611 2.7633v.1711c0 1.0881.381541 2.0136 1.144611 2.7768.76307.7633 1.68802 1.1448 2.7745 1.1448h10.68368c.1898 0 .3558.068.4978.204.1424.136.2135.3049.2135.5068v.8816c0 .2019-.0711.3708-.2135.5069-.1423.1359-.3084.2039-.4978.2039h-13.78785c-.02576 0-.04978.0111-.07101.033-.02159.0219-.03238.0507-.03238.0857v2.632c0 .0262.01079.0506.03238.0722.02158.022.04525.0329.07101.0329h13.78785c1.0778 0 2.0003-.3835 2.768-1.1514.7672-.7675 1.1512-1.6909 1.1512-2.7701v-.1714c-.0004-1.0792-.384-2.0005-1.1512-2.7637z"/><path d="m41.4063 18h-2.9879c-.0257 0-.0498.0089-.071.0262-.0215.0177-.0323.0439-.0323.079v3.3424c0 .2894-.1469.509-.4398.6581l-5.9625 2.5133-5.9626-2.5133c-.2931-.1491-.4396-.3683-.4396-.6581v-3.3424c0-.0351-.0087-.0613-.0258-.079-.0177-.0173-.0435-.0262-.0779-.0262h-2.9879c-.0258 0-.0498.0089-.071.0262-.0217.0177-.0324.0439-.0324.079v3.8295c0 .5706.1552 1.0923.4658 1.5658.3105.4739.7327.8246 1.2674 1.0527l6.2602 2.6712v3.8167c0 .0351.0108.0638.0325.0858.0215.0219.0494.0329.0838.0329h2.9879c.0258 0 .0495-.011.071-.0329.0217-.022.0324-.0503.0324-.0858v-3.8163l6.2602-2.6582c.5344-.2369.9574-.5901 1.2675-1.0594.3105-.4693.4655-.9888.4655-1.5594v-3.8426c0-.0351-.0109-.0613-.0324-.079-.0216-.0173-.0453-.0262-.0711-.0262z"/><path d="m63.5995 18h-2.9879c-.0344 0-.0605.011-.0776.0329-.0174.022-.0258.0461-.0258.0723v10.2119h-1.2546c-.2329 0-.4313-.1052-.595-.316l-5.7943-8.6194c-.6211-.8858-1.4792-1.3466-2.574-1.3817h-4.9924c-.0344 0-.0626.011-.0842.0329-.0216.022-.0324.0461-.0324.0723v12.9491c0 .0262.0108.0506.0324.0722.0216.022.0495.0329.0842.0329h2.9879c.0257 0 .0494-.0109.071-.0329.0216-.0216.0324-.046.0324-.0722v-10.212h1.2546c.2329 0 .431.1098.595.3291l5.7943 8.6194c.6212.8862 1.4789 1.3424 2.574 1.3686h4.9928c.0344 0 .0602-.0109.0776-.0329.017-.0216.0257-.046.0257-.0722v-12.9491c0-.0262-.0087-.0503-.0257-.0723-.0178-.0219-.0436-.0329-.078-.0329z"/><path d="m85.195 18h-18.302c-.0344 0-.0606.011-.0776.0329-.0173.022-.0257.0461-.0257.0723v2.632c0 .0262.0084.0506.0257.0722.017.022.0432.0329.0776.0329h7.5535v10.212c0 .0262.0084.0506.0257.0722.0172.022.0433.0329.0777.0329h2.9879c.0345 0 .0603-.0109.0776-.0329.0171-.0216.0258-.046.0258-.0722v-10.212h7.5535c.0344 0 .0623-.0109.0839-.0329.0215-.022.0323-.046.0323-.0722v-2.632c0-.0262-.0108-.0503-.0323-.0723-.0209-.0219-.0491-.0329-.0836-.0329z"/><path d="m107.388 18h-2.988c-.026 0-.05.011-.071.0329-.022.022-.032.0461-.032.0723v5.0532h-12.1066v-5.0532c0-.0262-.0111-.0503-.0325-.0723-.0214-.0216-.0496-.0329-.0839-.0329h-2.9883c-.0257 0-.0496.011-.071.0329-.0214.022-.0325.0461-.0325.0723v12.9491c0 .0262.0111.0506.0325.0722.0214.022.0453.0329.071.0329h2.9883c.0343 0 .0625-.0109.0839-.0329.0214-.0219.0325-.046.0325-.0722v-5.0532h12.1066v5.0532c0 .0262.01.0506.032.0722.022.022.045.0329.071.0329h2.988c.034 0 .062-.0109.084-.0329.021-.0219.032-.046.032-.0722v-12.9491c0-.0262-.011-.0503-.032-.0723-.022-.0219-.05-.0329-.084-.0329z"/><path d="m129.502 18h-14.499c-1.078 0-2.001.3815-2.769 1.1447-.767.7633-1.15 1.6845-1.15 2.7637v5.3294c0 1.0882.383 2.0136 1.15 2.7769.768.7633 1.691 1.1451 2.769 1.1451h14.499c.026 0 .049-.011.071-.0329.021-.022.032-.0461.032-.0723v-2.6319c0-.0351-.01-.0613-.032-.079-.022-.0174-.045-.0262-.071-.0262h-14.499c-.199 0-.367-.0702-.505-.2104-.138-.1403-.207-.3071-.207-.5002v-1.6058h15.202c.034 0 .06-.011.077-.033.017-.0219.026-.046.026-.0722v-2.632c0-.035-.009-.0613-.026-.079-.017-.0173-.043-.0262-.077-.0262h-15.202v-1.6055c0-.193.069-.3595.207-.5001.138-.1403.306-.2108.505-.2108h14.499c.026 0 .049-.0109.071-.0329.021-.0216.032-.046.032-.0722v-2.632c0-.0262-.01-.0503-.032-.0723-.022-.0216-.045-.0329-.071-.0329z"/><path d="m151.59 18h-18.302c-.034 0-.061.011-.078.0329-.017.022-.026.0461-.026.0723v2.632c0 .0262.009.0506.026.0722.017.022.044.0329.078.0329h7.553v10.212c0 .0262.009.0506.026.0722.018.022.044.0329.078.0329h2.987c.035 0 .061-.0109.078-.0329.017-.0216.026-.046.026-.0722v-10.212h7.553c.035 0 .063-.0109.084-.0329.022-.022.033-.046.033-.0722v-2.632c0-.0262-.011-.0503-.033-.0723-.021-.0219-.049-.0329-.083-.0329z"/><path d="m158.546 18.0262c-.018-.0173-.043-.0262-.078-.0262h-2.987c-.035 0-.061.0089-.078.0262-.017.0177-.026.0439-.026.079v12.9491c0 .0262.009.0506.026.0722.017.022.043.0329.078.0329h2.987c.035 0 .06-.0109.078-.0329.017-.0219.026-.046.026-.0722v-12.9491c0-.0347-.009-.0613-.026-.079z"/><path d="m166.795 21.1982c-.129-.1492-.289-.2239-.478-.2239h-3.88c-.035 0-.063-.011-.084-.0329-.022-.0216-.033-.0461-.033-.0723v-2.6319c0-.0263.011-.0503.033-.0723.021-.0216.049-.0329.084-.0329h4.1c1.034 0 1.927.4257 2.677 1.2764l.996 1.2238-1.94 2.3819zm7.165-1.8029c.751-.8422 1.647-1.2633 2.691-1.2633h4.087c.035 0 .061.0088.078.0262.017.0177.025.0439.025.079v2.6319c0 .0262-.008.0507-.025.0723-.017.0219-.043.0329-.078.0329h-3.88c-.19 0-.349.0747-.478.2239l-2.859 3.5004 2.872 3.5266c.129.1406.284.2108.465.2108h3.88c.035 0 .061.011.078.0329s.025.0507.025.0854v2.6319c0 .0262-.008.0507-.025.0723-.017.0219-.043.0329-.078.0329h-4.087c-1.043 0-1.935-.4254-2.677-1.2765l-2.38-2.9213-2.38 2.9213c-.75.8511-1.647 1.2765-2.69 1.2765h-4.087c-.035 0-.061-.011-.078-.0329-.017-.022-.026-.0503-.026-.0858v-2.6319c0-.0262.009-.0503.026-.0723.017-.0219.043-.0329.078-.0329h3.88c.181 0 .341-.0744.478-.2238l2.807-3.4477z"/></g></svg>